<?xml version="1.0" encoding="utf-8"?>
<!-- Generator: Adobe Illustrator 19.1.0, SVG Export Plug-In . SVG Version: 6.00 Build 0)  -->
<svg version="1.1" id="Layer_1" xmlns="http://www.w3.org/2000/svg" xmlns:xlink="http://www.w3.org/1999/xlink" x="0px" y="0px"
	 viewBox="0 0 60 47.06072" enable-background="new 0 0 60 47.06072" xml:space="preserve">
<g>
	<path fill="#B3B3B3" d="M0,10.72645c0-2.86119,1.15486-5.36373,3.4616-7.50862C5.76933,1.07294,8.49165,0,11.62757,0
		C16.55572,0,20.341,1.6314,22.9854,4.89419c2.6434,3.26179,3.9641,7.77635,3.9641,13.54168
		c0,5.36273-2.27276,10.77041-6.82129,16.22305c-4.54753,5.45164-10.02514,9.58657-16.43284,12.4018L0.73827,42.3014
		c5.07001-2.45858,9.04111-5.31877,11.91229-8.58056c2.87218-3.26279,4.53254-7.2189,4.9811-11.86633h-3.76929
		c-2.78027,0-5.04604-0.31269-6.79532-0.93808c-1.74928-0.62638-3.16389-1.49853-4.24083-2.61443
		c-1.02999-1.07295-1.75927-2.25778-2.18585-3.55351C0.21379,13.45177,0,12.11109,0,10.72645z M33.0505,10.72645
		c0-2.86119,1.15387-5.36373,3.4606-7.50862C38.81883,1.07294,41.54115,0,44.67707,0c4.92815,0,8.71443,1.6314,11.35783,4.89419
		C58.6783,8.15598,60,12.67054,60,18.43587c0,5.36273-2.27377,10.77041-6.82129,16.22305
		c-4.54853,5.45164-10.02514,9.58657-16.43384,12.4018l-2.95709-4.75932c5.07101-2.45858,9.04211-5.31877,11.91328-8.58056
		c2.87118-3.26279,4.53154-7.2189,4.9801-11.86633h-3.7683c-2.78127,0-5.04704-0.31269-6.79632-0.93808
		c-1.74928-0.62638-3.16289-1.49853-4.23983-2.61443c-1.03099-1.07295-1.76027-2.25778-2.18685-3.55351
		C33.26429,13.45177,33.0505,12.11109,33.0505,10.72645z"/>
</g>
</svg>
